<svg width="86" height="21" viewBox="0 0 86 21" fill="none" xmlns="http://www.w3.org/2000/svg">
<path d="M0.411807 20.2783V0.778319H3.91181V17.4533H12.5868V20.2783H0.411807ZM27.3001 20.6283C25.2834 20.6283 23.6001 20.22 22.2501 19.4033C20.9168 18.57 19.9168 17.395 19.2501 15.8783C18.6001 14.3617 18.2751 12.5783 18.2751 10.5283C18.2751 8.46165 18.6001 6.67832 19.2501 5.17832C19.9168 3.66165 20.9168 2.49499 22.2501 1.67832C23.6001 0.844986 25.2834 0.42832 27.3001 0.42832C29.3501 0.42832 31.0418 0.844986 32.3751 1.67832C33.7084 2.49499 34.7001 3.66165 35.3501 5.17832C36.0168 6.67832 36.3501 8.46165 36.3501 10.5283C36.3501 12.5783 36.0168 14.3617 35.3501 15.8783C34.7001 17.395 33.7084 18.57 32.3751 19.4033C31.0418 20.22 29.3501 20.6283 27.3001 20.6283ZM27.3001 17.9283C29.1668 17.9283 30.5418 17.2867 31.4251 16.0033C32.3084 14.7033 32.7501 12.8783 32.7501 10.5283C32.7501 8.17832 32.3084 6.36165 31.4251 5.07832C30.5418 3.77832 29.1668 3.12832 27.3001 3.12832C25.4501 3.12832 24.0834 3.77832 23.2001 5.07832C22.3168 6.36165 21.8751 8.17832 21.8751 10.5283C21.8751 12.8783 22.3168 14.7033 23.2001 16.0033C24.0834 17.2867 25.4501 17.9283 27.3001 17.9283ZM51.3634 20.6283C49.5467 20.6283 48.0134 20.2033 46.7634 19.3533C45.5134 18.5033 44.5634 17.3117 43.9134 15.7783C43.2634 14.245 42.9384 12.4783 42.9384 10.4783C42.9384 8.44499 43.2634 6.67832 43.9134 5.17832C44.58 3.66165 45.5717 2.49499 46.8884 1.67832C48.2217 0.844986 49.8717 0.42832 51.8384 0.42832C53.4717 0.42832 54.855 0.711653 55.9884 1.27832C57.1217 1.84499 58.0134 2.64499 58.6634 3.67832C59.3134 4.69499 59.73 5.89499 59.9134 7.27832H56.5134C56.3134 5.94499 55.8134 4.91999 55.0134 4.20332C54.2134 3.48665 53.13 3.12832 51.7634 3.12832C49.9634 3.12832 48.63 3.77832 47.7634 5.07832C46.8967 6.37832 46.4634 8.17832 46.4634 10.4783C46.4634 12.8617 46.9217 14.7117 47.8384 16.0283C48.755 17.3283 50.0967 17.9783 51.8634 17.9783C53.3467 17.9783 54.4967 17.545 55.3134 16.6783C56.1467 15.795 56.605 14.5867 56.6884 13.0533H50.7634V10.4033H59.9384V20.2783H57.2884V17.9533H56.6884C56.3384 18.67 55.7467 19.295 54.9134 19.8283C54.0967 20.3617 52.9134 20.6283 51.3634 20.6283ZM76.3923 20.6283C74.3756 20.6283 72.6923 20.22 71.3423 19.4033C70.0089 18.57 69.0089 17.395 68.3423 15.8783C67.6923 14.3617 67.3673 12.5783 67.3673 10.5283C67.3673 8.46165 67.6923 6.67832 68.3423 5.17832C69.0089 3.66165 70.0089 2.49499 71.3423 1.67832C72.6923 0.844986 74.3756 0.42832 76.3923 0.42832C78.4423 0.42832 80.1339 0.844986 81.4673 1.67832C82.8006 2.49499 83.7923 3.66165 84.4423 5.17832C85.1089 6.67832 85.4423 8.46165 85.4423 10.5283C85.4423 12.5783 85.1089 14.3617 84.4423 15.8783C83.7923 17.395 82.8006 18.57 81.4673 19.4033C80.1339 20.22 78.4423 20.6283 76.3923 20.6283ZM76.3923 17.9283C78.2589 17.9283 79.6339 17.2867 80.5173 16.0033C81.4006 14.7033 81.8423 12.8783 81.8423 10.5283C81.8423 8.17832 81.4006 6.36165 80.5173 5.07832C79.6339 3.77832 78.2589 3.12832 76.3923 3.12832C74.5423 3.12832 73.1756 3.77832 72.2923 5.07832C71.4089 6.36165 70.9673 8.17832 70.9673 10.5283C70.9673 12.8783 71.4089 14.7033 72.2923 16.0033C73.1756 17.2867 74.5423 17.9283 76.3923 17.9283Z" fill="white"/>
</svg>
